<?xml version="1.0" encoding="UTF-8" standalone="no"?>
<!-- Created with Inkscape (http://www.inkscape.org/) -->

<svg
   xmlns:dc="http://purl.org/dc/elements/1.1/"
   xmlns:cc="http://creativecommons.org/ns#"
   xmlns:rdf="http://www.w3.org/1999/02/22-rdf-syntax-ns#"
   xmlns:svg="http://www.w3.org/2000/svg"
   xmlns="http://www.w3.org/2000/svg"
   xmlns:sodipodi="http://sodipodi.sourceforge.net/DTD/sodipodi-0.dtd"
   xmlns:inkscape="http://www.inkscape.org/namespaces/inkscape"
   width="210mm"
   height="297mm"
   viewBox="0 0 210 297"
   version="1.1"
   id="svg2557"
   inkscape:version="0.92.4 (5da689c313, 2019-01-14)"
   sodipodi:docname="logo.svg">
  <defs
     id="defs2551">
    <clipPath
       id="g">
      <rect
         style="fill:#e3e3e3"
         y="0"
         x="0"
         width="30.5"
         height="20"
         rx="3"
         transform="translate(385,-60)"
         id="rect35" />
    </clipPath>
  </defs>
  <sodipodi:namedview
     id="base"
     pagecolor="#ffffff"
     bordercolor="#666666"
     borderopacity="1.0"
     inkscape:pageopacity="0.0"
     inkscape:pageshadow="2"
     inkscape:zoom="1.4"
     inkscape:cx="350.98162"
     inkscape:cy="685.07428"
     inkscape:document-units="mm"
     inkscape:current-layer="layer1"
     showgrid="false"
     inkscape:pagecheckerboard="true"
     inkscape:window-width="1366"
     inkscape:window-height="714"
     inkscape:window-x="0"
     inkscape:window-y="25"
     inkscape:window-maximized="1" />
  <metadata
     id="metadata2554">
    <rdf:RDF>
      <cc:Work
         rdf:about="">
        <dc:format>image/svg+xml</dc:format>
        <dc:type
           rdf:resource="http://purl.org/dc/dcmitype/StillImage" />
        <dc:title></dc:title>
      </cc:Work>
    </rdf:RDF>
  </metadata>
  <g
     inkscape:label="Layer 1"
     inkscape:groupmode="layer"
     id="layer1">
    <g
       transform="matrix(0.26458333,0,0,0.26458333,-300.37665,-59.356258)"
       id="g3666">
      <g
         id="g364"
         transform="translate(1526.977,571.269)">
        <path
           style="fill:#ffdf00"
           inkscape:connector-curvature="0"
           id="path356"
           transform="translate(-13.188,-74.935)"
           d="M 43.558,79.415 31.515,91.458 14.492,79.131 a 2.319,2.319 0 0 1 1.733,-4.166 z m 0,0" />
        <path
           style="fill:#ffdf00"
           inkscape:connector-curvature="0"
           id="path358"
           transform="translate(-9.999,-283.051)"
           d="m 20.9,308.048 0.1,0.053 a 65.177,65.177 0 0 0 -3.23,6.155 l -0.1,-0.045 -6.738,-4.664 a 2.18,2.18 0 0 1 1.855,-3.884 z m 0,0" />
        <path
           style="fill:#ffdf00"
           inkscape:connector-curvature="0"
           id="path360"
           transform="translate(-107.478,-359.683)"
           d="m 126.621,398.612 a 2.18,2.18 0 0 1 -3.884,1.855 l -4.664,-6.738 -0.045,-0.1 a 66.008,66.008 0 0 0 6,-3.133 h 0.213 z m 0,0" />
        <path
           style="fill:#ffdf00"
           inkscape:connector-curvature="0"
           id="path362"
           transform="translate(-243.136,-180.134)"
           d="m 284.861,218.853 a 2.319,2.319 0 0 1 -4.166,1.733 l -12.327,-17.023 12.043,-12.043 z m 0,0" />
      </g>
      <path
         style="fill:#2e5d6a"
         inkscape:connector-curvature="0"
         transform="translate(1310.984,334.568)"
         id="path368"
         d="m 238.573,254.495 a 0.976,0.976 0 1 0 1.381,0 0.976,0.976 0 0 0 -1.381,0 z m 0,0" />
      <path
         style="fill:#2e5d6a"
         inkscape:connector-curvature="0"
         transform="translate(1526,563.499)"
         id="path370"
         d="m 39.085,3.358 c -1.676,1.3 -2.132,1.966 -8.076,7.848 l -3.563,-0.58 1.635,-1.635 A 2.93,2.93 0 0 0 24.937,4.848 L 20.319,9.466 4.168,6.836 A 3.3,3.3 0 0 0 1.707,12.757 L 17.8,24.413 14.787,27.427 a 24.5,24.5 0 0 0 -3.236,4.226 L 4.046,29.445 A 3.156,3.156 0 0 0 1.36,35.069 l 6.153,4.26 C 6.442,41.693 5.79,43.4 5.76,43.481 a 0.977,0.977 0 0 0 1.26,1.26 c 0.079,-0.03 1.788,-0.681 4.152,-1.752 l 4.26,6.154 a 3.156,3.156 0 0 0 5.623,-2.687 l -2.207,-7.505 a 24.521,24.521 0 0 0 4.226,-3.236 L 26.089,32.7 37.744,48.794 a 3.3,3.3 0 0 0 5.921,-2.462 l -2.629,-16.15 4.618,-4.618 A 2.9302505,2.9302505 0 0 0 41.51,21.42 l -1.635,1.635 -0.58,-3.563 c 5.888,-5.949 6.546,-6.4 7.844,-8.071 v -0.006 c 3.012,-3.9 3.717,-7.846 1.753,-9.811 -1.964,-1.965 -5.902,-1.26 -9.807,1.754 z M 26.318,6.229 A 0.977,0.977 0 0 1 27.7,7.609 L 25.07,10.238 22.695,9.851 Z M 2.852,11.175 a 1.342,1.342 0 0 1 1,-2.411 L 29.304,12.908 19.2,23.014 Z M 2.3,31.623 a 1.2,1.2 0 0 1 1.191,-0.3 l 7.02,2.065 c -0.718,1.257 -1.442,2.646 -2.165,4.15 L 2.467,33.468 A 1.2,1.2 0 0 1 2.3,31.628 Z M 18.878,48.2 a 1.2,1.2 0 0 1 -1.841,-0.166 l -4.07,-5.88 c 1.5,-0.723 2.894,-1.448 4.15,-2.164 l 2.064,7.02 a 1.2,1.2 0 0 1 -0.3,1.191 z M 42.892,22.8 a 0.977,0.977 0 0 1 1.381,1.382 l -3.624,3.623 -0.386,-2.375 z m -1.155,23.845 a 1.342,1.342 0 0 1 -2.411,1 L 27.487,31.3 37.593,21.194 Z M 21.694,34.331 a 24.594,24.594 0 0 1 -4.675,3.45 72.361,72.361 0 0 1 -8.567,4.268 71.434,71.434 0 0 1 4.362,-8.724 24.177,24.177 0 0 1 3.355,-4.518 C 40.025,5.009 38.612,6.237 40.059,5.079 a 5.071,5.071 0 0 1 4,1.358 5.072,5.072 0 0 1 1.359,4 c -1.16,1.451 0.053,0.052 -23.728,23.89 z M 47.094,7.875 A 6.445,6.445 0 0 0 42.627,3.408 c 1.413,-0.717 3.793,-1.519 4.89,-0.423 0.866,0.866 0.651,2.773 -0.423,4.891 z m 0,0" />
      <path
         style="fill:#2e5d6a"
         inkscape:connector-curvature="0"
         transform="translate(1285.455,385.612)"
         id="path372"
         d="m 269.626,197.926 -2.762,2.761 a 0.977,0.977 0 1 0 1.381,1.381 l 2.761,-2.762 a 0.97651446,0.97651446 0 0 0 -1.381,-1.381 z m 0,0" />
      <path
         style="fill:#2e5d6a"
         inkscape:connector-curvature="0"
         transform="translate(1234.418,436.657)"
         id="path374"
         d="m 326.188,141.356 -2.763,2.763 a 0.977,0.977 0 1 0 1.381,1.381 l 2.763,-2.763 a 0.977,0.977 0 1 0 -1.381,-1.381 z m 0,0" />
    </g>
  </g>
</svg>
